<svg width="41" height="41" viewBox="0 0 41 41" fill="none" xmlns="http://www.w3.org/2000/svg">
<g filter="url(#filter0_d_124_654)">
<path d="M2.91496 2.91496C3.50098 2.32911 4.29569 2 5.12433 2C5.95297 2 6.74768 2.32911 7.33371 2.91496L18.3837 13.965L29.4337 2.91496C30.0231 2.34571 30.8125 2.03073 31.6318 2.03785C32.4512 2.04497 33.235 2.37362 33.8144 2.95302C34.3938 3.53242 34.7224 4.31621 34.7296 5.13558C34.7367 5.95494 34.4217 6.74433 33.8525 7.33371L22.8025 18.3837L33.8525 29.4337C34.4217 30.0231 34.7367 30.8125 34.7296 31.6318C34.7224 32.4512 34.3938 33.235 33.8144 33.8144C33.235 34.3938 32.4512 34.7224 31.6318 34.7296C30.8125 34.7367 30.0231 34.4217 29.4337 33.8525L18.3837 22.8025L7.33371 33.8525C6.74433 34.4217 5.95494 34.7367 5.13558 34.7296C4.31621 34.7224 3.53242 34.3938 2.95302 33.8144C2.37362 33.235 2.04497 32.4512 2.03785 31.6318C2.03073 30.8125 2.34571 30.0231 2.91496 29.4337L13.965 18.3837L2.91496 7.33371C2.32911 6.74768 2 5.95297 2 5.12433C2 4.29569 2.32911 3.50098 2.91496 2.91496Z" fill="white"/>
</g>
<defs>
<filter id="filter0_d_124_654" x="0" y="0" width="40.7297" height="40.7297" filterUnits="userSpaceOnUse" color-interpolation-filters="sRGB">
<feFlood flood-opacity="0" result="BackgroundImageFix"/>
<feColorMatrix in="SourceAlpha" type="matrix" values="0 0 0 0 0 0 0 0 0 0 0 0 0 0 0 0 0 0 127 0" result="hardAlpha"/>
<feOffset dx="2" dy="2"/>
<feGaussianBlur stdDeviation="2"/>
<feComposite in2="hardAlpha" operator="out"/>
<feColorMatrix type="matrix" values="0 0 0 0 0 0 0 0 0 0 0 0 0 0 0 0 0 0 0.8 0"/>
<feBlend mode="normal" in2="BackgroundImageFix" result="effect1_dropShadow_124_654"/>
<feBlend mode="normal" in="SourceGraphic" in2="effect1_dropShadow_124_654" result="shape"/>
</filter>
</defs>
</svg>
