<svg width="32" height="31" viewBox="0 0 32 31" fill="none" xmlns="http://www.w3.org/2000/svg">
<path d="M3.33765 0C1.74638 0 0.428558 1.31782 0.428558 2.90909V29.0909C0.428558 30.6822 1.74638 32 3.33765 32H29.5195C31.1107 32 32.4286 30.6822 32.4286 29.0909V2.90909C32.4286 1.31782 31.1107 0 29.5195 0H3.33765ZM3.33765 2.90909H29.5195V29.0909H21.9733V19.2727H25.7464L26.2918 14.9091H21.9747V12.0902C21.9747 10.8189 22.286 9.95491 24.11 9.95491H26.4737V6C26.0707 5.94909 24.6729 5.86327 23.0657 5.86327C19.7129 5.86327 17.4293 7.88073 17.4293 11.6364V14.9091H13.6111V19.2727H17.4278V29.0909H3.33765V2.90909Z" fill="#203558"/>
</svg>
