<svg width="30" height="30" viewBox="0 0 30 30" fill="none" xmlns="http://www.w3.org/2000/svg">
<path fill-rule="evenodd" clip-rule="evenodd" d="M0.333344 2.784C0.333344 2.13404 0.591538 1.5107 1.05113 1.05112C1.51072 0.591526 2.13405 0.333332 2.78401 0.333332H27.2133C27.5354 0.332805 27.8545 0.395815 28.1522 0.518754C28.4499 0.641692 28.7205 0.822145 28.9483 1.04978C29.1762 1.27742 29.357 1.54776 29.4802 1.84534C29.6035 2.14293 29.6668 2.4619 29.6667 2.784V27.2133C29.667 27.5355 29.6038 27.8546 29.4808 28.1523C29.3577 28.45 29.1771 28.7205 28.9494 28.9484C28.7216 29.1763 28.4512 29.357 28.1535 29.4802C27.8559 29.6035 27.5368 29.6668 27.2147 29.6667H2.78401C2.46207 29.6667 2.14329 29.6032 1.84587 29.48C1.54846 29.3568 1.27824 29.1761 1.05066 28.9484C0.823073 28.7207 0.642586 28.4504 0.519507 28.1529C0.396428 27.8554 0.333169 27.5366 0.333344 27.2147V2.784ZM11.944 11.5173H15.916V13.512C16.4893 12.3653 17.956 11.3333 20.16 11.3333C24.3853 11.3333 25.3867 13.6173 25.3867 17.808V25.5707H21.1107V18.7627C21.1107 16.376 20.5373 15.0293 19.0813 15.0293C17.0613 15.0293 16.2213 16.4813 16.2213 18.7627V25.5707H11.944V11.5173ZM4.61068 25.388H8.88801V11.3333H4.61068V25.3867V25.388ZM9.50001 6.74933C9.50807 7.11556 9.44291 7.47971 9.30833 7.82042C9.17375 8.16112 8.97248 8.47151 8.71632 8.73337C8.46016 8.99524 8.15427 9.2033 7.81662 9.34534C7.47896 9.48739 7.11633 9.56055 6.75001 9.56055C6.38369 9.56055 6.02106 9.48739 5.6834 9.34534C5.34575 9.2033 5.03986 8.99524 4.7837 8.73337C4.52754 8.47151 4.32627 8.16112 4.19169 7.82042C4.05711 7.47971 3.99195 7.11556 4.00001 6.74933C4.01584 6.03047 4.31252 5.34639 4.82652 4.84358C5.34052 4.34077 6.03097 4.05922 6.75001 4.05922C7.46904 4.05922 8.15949 4.34077 8.6735 4.84358C9.1875 5.34639 9.48418 6.03047 9.50001 6.74933Z" fill="#203558"/>
</svg>
