<svg width="50" height="46" viewBox="0 0 50 46" fill="none" xmlns="http://www.w3.org/2000/svg">
<g clip-path="url(#clip0_124_804)">
<path d="M13.2177 39.2871L14.0349 39.6578C17.4405 41.5109 21.2544 42.3757 25.0686 42.3757C37.0556 42.3757 46.8632 33.4806 46.8632 22.6087C46.8632 17.4199 44.5474 12.3545 40.461 8.64811C36.3745 4.94173 30.9257 2.84155 25.0686 2.84155C13.0815 2.84155 3.27379 11.7367 3.4101 22.7323C3.4101 26.4385 4.63604 30.0214 6.67922 33.1099L7.22404 33.8513L5.04475 41.1404L13.2177 39.2871Z" fill="#00E676"/>
<path d="M42.7765 6.67139C38.1451 2.34742 31.743 0 25.2045 0C11.3106 0 0.140819 10.2542 0.276927 22.7321C0.276927 26.6856 1.50287 30.5156 3.54624 33.9747L0.0045166 45.7115L13.2175 42.6228C16.8953 44.4761 20.9817 45.3409 25.0684 45.3409C38.8262 45.3409 49.996 35.0866 49.996 22.6088C49.996 16.555 47.4078 10.8719 42.7767 6.67139H42.7765ZM25.2045 41.5111C21.5267 41.5111 17.8489 40.6465 14.7159 38.9168L13.8986 38.5461L5.99813 40.3992L8.04131 33.3573L7.49649 32.6159C1.50287 23.8444 4.36347 12.2309 14.171 6.79484C23.9786 1.35897 36.6468 3.95346 42.6404 12.8486C48.6338 21.7438 45.7732 33.2335 35.9658 38.6696C32.8326 40.5227 29.0187 41.5109 25.2045 41.5109V41.5111ZM37.1916 27.7978L35.6932 27.1801C35.6932 27.1801 33.5139 26.3152 32.1517 25.6975C32.0154 25.6975 31.8793 25.5738 31.743 25.5738C31.3343 25.5738 31.0618 25.6975 30.7894 25.8211C30.7894 25.8211 30.6533 25.9445 28.7463 27.9213C28.61 28.1683 28.3376 28.292 28.0651 28.292H27.9288C27.7927 28.292 27.5203 28.1683 27.384 28.0449L26.7029 27.7978C25.2045 27.1801 23.8425 26.4387 22.7526 25.4504C22.4802 25.2033 22.0715 24.9563 21.7991 24.7092C20.8456 23.8444 19.892 22.8559 19.2111 21.744L19.0748 21.4969C18.9387 21.3733 18.9387 21.2499 18.8024 21.0028C18.8024 20.7557 18.8024 20.5087 18.9387 20.385C18.9387 20.385 19.4835 19.7673 19.892 19.3968C20.1647 19.1495 20.3008 18.779 20.5732 18.5319C20.8456 18.1612 20.9819 17.6671 20.8456 17.2964C20.7095 16.6787 19.0748 13.343 18.6663 12.6018C18.3937 12.2311 18.1215 12.1076 17.7128 11.984H16.2144C15.9418 11.984 15.6696 12.1076 15.397 12.1076L15.2607 12.2311C14.9883 12.3547 14.7159 12.6018 14.4434 12.7252C14.171 12.9724 14.0347 13.2193 13.7623 13.4666C12.8088 14.5785 12.264 15.9374 12.264 17.2964C12.264 18.2847 12.5364 19.2731 12.9451 20.138L13.0814 20.5087C14.3073 22.8559 15.9418 24.9563 18.1215 26.8094L18.6663 27.3035C19.0748 27.6742 19.4835 27.9213 19.7559 28.2918C22.6165 30.5157 25.8857 32.1218 29.5635 32.9866C29.9722 33.1101 30.517 33.1101 30.9257 33.2337H32.2878C32.9689 33.2337 33.7862 32.9866 34.3312 32.7395C34.7397 32.4925 35.0121 32.4925 35.2845 32.2454L35.5571 31.9982C35.8295 31.7511 36.1019 31.6276 36.3743 31.3806C36.6468 31.1335 36.9192 30.8864 37.0555 30.6392C37.3279 30.1451 37.464 29.5273 37.6003 28.9097V28.0449C37.6003 28.0449 37.464 27.9213 37.1916 27.7978V27.7978Z" fill="#E9E9E9"/>
</g>
<defs>
<clipPath id="clip0_124_804">
<rect width="50" height="45.8716" fill="white"/>
</clipPath>
</defs>
</svg>
