<svg width="31" height="26" viewBox="0 0 31 26" fill="none" xmlns="http://www.w3.org/2000/svg">
<path d="M30.524 3.58266C29.4107 4.076 28.2147 4.40933 26.9573 4.56C28.2547 3.78372 29.2252 2.56195 29.688 1.12267C28.4691 1.84665 27.1351 2.35626 25.744 2.62933C24.8085 1.63049 23.5694 0.968433 22.2191 0.745964C20.8688 0.523494 19.4828 0.753054 18.2763 1.399C17.0698 2.04495 16.1104 3.07115 15.5469 4.31827C14.9834 5.56539 14.8474 6.96366 15.16 8.296C12.6902 8.17199 10.2742 7.53006 8.06856 6.41187C5.86296 5.29368 3.91712 3.72421 2.35733 1.80533C1.82399 2.72533 1.51733 3.792 1.51733 4.928C1.51673 5.95066 1.76857 6.95765 2.2505 7.85964C2.73243 8.76163 3.42954 9.53071 4.27999 10.0987C3.2937 10.0673 2.32916 9.80078 1.46666 9.32133V9.40133C1.46656 10.8357 1.96271 12.2258 2.87091 13.336C3.77911 14.4461 5.04342 15.2079 6.44933 15.492C5.53437 15.7396 4.57511 15.7761 3.64399 15.5987C4.04066 16.8328 4.81332 17.912 5.85382 18.6852C6.89431 19.4584 8.15055 19.8869 9.44666 19.9107C7.24644 21.6379 4.52918 22.5748 1.73199 22.5707C1.2365 22.5708 0.74143 22.5419 0.249329 22.484C3.08863 24.3096 6.39378 25.2784 9.76933 25.2747C21.196 25.2747 27.4427 15.8107 27.4427 7.60266C27.4427 7.336 27.436 7.06666 27.424 6.8C28.639 5.9213 29.6879 4.83319 30.5213 3.58666L30.524 3.58266Z" fill="#203558"/>
</svg>
