<svg width="32" height="32" viewBox="0 0 32 32" fill="none" xmlns="http://www.w3.org/2000/svg">
<path d="M31.3291 4.63324C31.148 3.66431 30.795 2.78708 30.3079 2.09482C29.807 1.38127 29.1931 0.87085 28.5242 0.611739C26.0205 -0.377647 15.9898 -0.377646 15.9898 -0.377646C11.8082 -0.448977 7.62754 -0.135248 3.47153 0.56177C2.80254 0.840024 2.18979 1.36185 1.68777 2.08083C1.1945 2.79239 0.83722 3.66984 0.650578 4.63125C0.202229 8.25249 -0.0156097 11.9294 -1.17434e-06 15.6124C-0.015999 19.2921 0.201305 22.9679 0.650578 26.5936C0.83322 27.551 1.18917 28.4245 1.68377 29.13C2.17837 29.8356 2.79429 30.3453 3.47153 30.6151C6.00852 31.6025 15.9898 31.6025 15.9898 31.6025C20.1768 31.6739 24.3628 31.3602 28.5242 30.6631C29.1931 30.404 29.807 29.8936 30.3079 29.18C30.8012 28.4744 31.1518 27.597 31.3278 26.6416C31.7878 23.0217 32.0115 19.3433 31.9957 15.6584C32.0303 11.9579 31.8069 8.26212 31.3291 4.63125V4.63324ZM12.8009 22.4562V8.77068L21.1465 15.6144L12.8009 22.4562Z" fill="#203558"/>
</svg>
