<svg width="34" height="34" viewBox="0 0 34 34" fill="none" xmlns="http://www.w3.org/2000/svg">
<path d="M1.53123 1.53129C2.11725 0.945443 2.91197 0.616333 3.7406 0.616333C4.56924 0.616333 5.36396 0.945443 5.94998 1.53129L17 12.5813L28.05 1.53129C28.6394 0.962046 29.4287 0.647064 30.2481 0.654184C31.0675 0.661304 31.8513 0.989957 32.4307 1.56936C33.0101 2.14876 33.3387 2.93255 33.3458 3.75191C33.353 4.57128 33.038 5.36066 32.4687 5.95004L21.4187 17L32.4687 28.05C33.038 28.6394 33.353 29.4288 33.3458 30.2482C33.3387 31.0675 33.0101 31.8513 32.4307 32.4307C31.8513 33.0101 31.0675 33.3388 30.2481 33.3459C29.4287 33.353 28.6394 33.038 28.05 32.4688L17 21.4188L5.94998 32.4688C5.3606 33.038 4.57122 33.353 3.75185 33.3459C2.93249 33.3388 2.1487 33.0101 1.5693 32.4307C0.989896 31.8513 0.661243 31.0675 0.654123 30.2482C0.647003 29.4288 0.961985 28.6394 1.53123 28.05L12.5812 17L1.53123 5.95004C0.945382 5.36402 0.616272 4.5693 0.616272 3.74067C0.616272 2.91203 0.945382 2.11731 1.53123 1.53129V1.53129Z" fill="white"/>
</svg>
