<svg width="33" height="32" viewBox="0 0 33 32" fill="none" xmlns="http://www.w3.org/2000/svg">
<path d="M3.33768 0C1.74641 0 0.428589 1.31782 0.428589 2.90909V29.0909C0.428589 30.6822 1.74641 32 3.33768 32H29.5195C31.1108 32 32.4286 30.6822 32.4286 29.0909V2.90909C32.4286 1.31782 31.1108 0 29.5195 0H3.33768ZM3.33768 2.90909H29.5195V29.0909H21.9733V19.2727H25.7464L26.2919 14.9091H21.9748V12.0902C21.9748 10.8189 22.286 9.95491 24.11 9.95491H26.4737V6C26.0708 5.94909 24.673 5.86327 23.0657 5.86327C19.713 5.86327 17.4293 7.88073 17.4293 11.6364V14.9091H13.6111V19.2727H17.4279V29.0909H3.33768V2.90909Z" fill="white"/>
</svg>
