<svg width="32" height="32" viewBox="0 0 32 32" fill="none" xmlns="http://www.w3.org/2000/svg">
<path fill-rule="evenodd" clip-rule="evenodd" d="M0.000122466 2.67346C0.000122466 1.96441 0.281789 1.28441 0.783159 0.78304C1.28453 0.28167 1.96453 3.56409e-06 2.67358 3.56409e-06H29.3238C29.6751 -0.000570329 30.0232 0.0681678 30.348 0.202282C30.6727 0.336397 30.9679 0.533254 31.2165 0.781583C31.4651 1.02991 31.6623 1.32484 31.7967 1.64947C31.9312 1.97411 32.0003 2.32208 32.0001 2.67346V29.3236C32.0005 29.6751 31.9316 30.0232 31.7973 30.348C31.663 30.6727 31.466 30.9679 31.2176 31.2165C30.9692 31.465 30.6741 31.6622 30.3494 31.7966C30.0247 31.9311 29.6767 32.0002 29.3252 32H2.67358C2.32237 32 1.97461 31.9308 1.65015 31.7964C1.3257 31.6619 1.03092 31.4649 0.782645 31.2165C0.534372 30.968 0.337478 30.6732 0.203209 30.3486C0.0689414 30.0241 -6.86142e-05 29.6763 0.000122466 29.3251V2.67346ZM12.6663 12.2007H16.9994V14.3767C17.6248 13.1258 19.2248 12 21.6292 12C26.2387 12 27.331 14.4916 27.331 19.0633V27.5316H22.6663V20.1047C22.6663 17.5011 22.0408 16.032 20.4525 16.032C18.2488 16.032 17.3325 17.616 17.3325 20.1047V27.5316H12.6663V12.2007ZM4.6663 27.3324H9.33249V12H4.6663V27.3309V27.3324ZM10.0001 6.99928C10.0089 7.3988 9.93783 7.79606 9.79102 8.16773C9.6442 8.53941 9.42463 8.87802 9.14519 9.16369C8.86574 9.44935 8.53205 9.67633 8.16369 9.83129C7.79534 9.98624 7.39974 10.0661 7.00012 10.0661C6.6005 10.0661 6.20491 9.98624 5.83655 9.83129C5.4682 9.67633 5.13451 9.44935 4.85506 9.16369C4.57561 8.87802 4.35604 8.53941 4.20923 8.16773C4.06242 7.79606 3.99132 7.3988 4.00012 6.99928C4.01739 6.21506 4.34105 5.46879 4.90177 4.92027C5.4625 4.37176 6.21572 4.06461 7.00012 4.06461C7.78452 4.06461 8.53774 4.37176 9.09847 4.92027C9.6592 5.46879 9.98285 6.21506 10.0001 6.99928V6.99928Z" fill="white"/>
</svg>
