<svg width="32" height="32" viewBox="0 0 32 32" fill="none" xmlns="http://www.w3.org/2000/svg">
<path d="M32 3.79578C30.8232 4.43722 29.5591 4.87063 28.2301 5.06653C29.6013 4.0572 30.6272 2.46864 31.1164 0.597263C29.828 1.5386 28.418 2.2012 26.9476 2.55625C25.9588 1.25754 24.6491 0.396729 23.2218 0.107471C21.7945 -0.181787 20.3296 0.11669 19.0543 0.956559C17.7791 1.79643 16.7649 3.1307 16.1693 4.75223C15.5737 6.37375 15.43 8.1918 15.7604 9.92412C13.1499 9.76288 10.5961 8.92824 8.26485 7.47435C5.93354 6.02047 3.87681 3.97983 2.22813 1.48487C1.66441 2.68107 1.34026 4.06796 1.34026 5.545C1.33963 6.87468 1.60582 8.18399 2.11522 9.35676C2.62461 10.5295 3.36145 11.5295 4.26037 12.268C3.21787 12.2272 2.19836 11.8806 1.28671 11.2573V11.3613C1.2866 13.2262 1.81102 15.0337 2.77098 16.4772C3.73094 17.9206 5.06731 18.9111 6.55333 19.2804C5.58624 19.6024 4.57231 19.6498 3.58813 19.4191C4.0074 21.0238 4.82409 22.427 5.92389 23.4323C7.02368 24.4376 8.35151 24.9948 9.72148 25.0256C7.39587 27.2714 4.52376 28.4896 1.56716 28.4842C1.04343 28.4844 0.520146 28.4468 0 28.3715C3.00111 30.7452 6.49462 32.0049 10.0625 32C22.1404 32 28.7431 19.6948 28.7431 9.02264C28.7431 8.67591 28.736 8.32572 28.7233 7.979C30.0076 6.8365 31.1162 5.42174 31.9972 3.80099L32 3.79578V3.79578Z" fill="white"/>
</svg>
