<svg width="32" height="32" viewBox="0 0 32 32" fill="none" xmlns="http://www.w3.org/2000/svg">
<path d="M31.3299 5.0208C31.1488 4.05187 30.7959 3.17464 30.3087 2.48238C29.8079 1.76883 29.194 1.25841 28.525 0.999297C26.0213 0.00991141 15.9907 0.00991163 15.9907 0.00991163C11.809 -0.0614188 7.62837 0.25231 3.47236 0.949328C2.80337 1.22758 2.19061 1.74941 1.6886 2.46839C1.19533 3.17994 0.838043 4.0574 0.651402 5.0188C0.203053 8.64004 -0.0147857 12.317 0.0008228 16C-0.015175 19.6797 0.202129 23.3554 0.651402 26.9812C0.834044 27.9386 1.19 28.812 1.6846 29.5176C2.1792 30.2232 2.79511 30.7328 3.47236 31.0027C6.00935 31.9901 15.9907 31.9901 15.9907 31.9901C20.1777 32.0615 24.3636 31.7478 28.525 31.0506C29.194 30.7915 29.8079 30.2811 30.3087 29.5676C30.802 28.862 31.1526 27.9845 31.3286 27.0291C31.7887 23.4093 32.0124 19.7309 31.9965 16.046C32.0311 12.3455 31.8077 8.64968 31.3299 5.0188V5.0208ZM12.8018 22.8437V9.15823L21.1473 16.002L12.8018 22.8437Z" fill="white"/>
</svg>
